<?xml version="1.0" encoding="utf-8"?>
<!-- Generator: Adobe Illustrator 22.1.0, SVG Export Plug-In . SVG Version: 6.00 Build 0)  -->
<svg version="1.1" id="Layer_1" xmlns="http://www.w3.org/2000/svg" xmlns:xlink="http://www.w3.org/1999/xlink" x="0px" y="0px"
	 viewBox="0 0 25 25" style="enable-background:new 0 0 25 25;" xml:space="preserve">
<style type="text/css">
	.st0{fill:#BEBEBE;}
	.st1{fill:none;}
</style>
<path class="st0" d="M22.4,20.3v3.4h-2.2v-3.4H4.9v3.4H2.6v-3.4H0v-2.5h25v2.5H22.4z M2.8,11.4V2.5l1.1-1.2h17.2l1.1,1.2v8.9
	l2.7,4.8H0.1L2.8,11.4z M5.1,10c1.5-0.4,7.5-2.1,11-2.1c3.5,0,2.4,1.7,3.9,2.1V3.8H5.1V10z M13.4,7.8V6.3c0-0.9,1.1-1.6,2.5-1.6
	c1.4,0,2.5,0.7,2.5,1.6v2.2c0,0-1.5-0.4-2.5-0.5C15,7.9,13.4,7.8,13.4,7.8z M6.6,8.5V6.3c0-0.9,1.1-1.6,2.5-1.6
	c1.4,0,2.5,0.7,2.5,1.6v1.4c0,0-1.6,0.1-2.5,0.2C8.1,8.1,6.6,8.5,6.6,8.5z"/>
<rect class="st1" width="25" height="25"/>
</svg>
