<?xml version="1.0" encoding="utf-8"?>
<!-- Generator: Adobe Illustrator 22.1.0, SVG Export Plug-In . SVG Version: 6.00 Build 0)  -->
<svg version="1.1" id="Layer_1" xmlns="http://www.w3.org/2000/svg" xmlns:xlink="http://www.w3.org/1999/xlink" x="0px" y="0px"
	 viewBox="0 0 25 25" style="enable-background:new 0 0 25 25;" xml:space="preserve">
<path d="M24,0H1C0.4,0,0,0.4,0,1V24c0,0.5,0.4,1,1,1H24c0.5,0,1-0.4,1-1V1C25,0.4,24.6,0,24,0L24,0z M23.1,23.1L23.1,23.1H1.9V7.5
	h21.2V23.1L23.1,23.1z M23.1,6.4L23.1,6.4H1.9V1.9h1.9v1.4c0,0.5,0.4,1,1,1c0.5,0,1-0.4,1-1V1.9H9v1.4c0,0.5,0.4,1,1,1
	c0.5,0,1-0.4,1-1V1.9h3.2v1.4c0,0.5,0.4,1,1,1c0.5,0,1-0.4,1-1V1.9h3.2v1.4c0,0.5,0.4,1,1,1c0.5,0,1-0.4,1-1V1.9h1.9V6.4L23.1,6.4z
	 M4.7,16.5L4.7,16.5C5,16.8,5.4,17,5.8,17c0.5,0,0.9-0.2,1.2-0.5l0,0c0.3-0.3,0.5-0.7,0.5-1.2S7.3,14.5,7,14.2l0,0
	c-0.3-0.3-0.7-0.5-1.2-0.5c-0.4,0-0.9,0.2-1.1,0.5h0c-0.3,0.3-0.5,0.7-0.5,1.2S4.4,16.2,4.7,16.5L4.7,16.5L4.7,16.5z M5.5,15L5.5,15
	L5.5,15c0.1-0.1,0.2-0.1,0.3-0.1c0.1,0,0.3,0.1,0.3,0.1v0c0.1,0.1,0.1,0.2,0.1,0.3c0,0.1-0.1,0.3-0.1,0.3l0,0
	c-0.1,0.1-0.2,0.1-0.3,0.1c-0.1,0-0.3-0.1-0.3-0.1h0c-0.1-0.1-0.1-0.2-0.1-0.3C5.4,15.2,5.4,15.1,5.5,15L5.5,15z M18,16.5L18,16.5
	c0.3,0.3,0.7,0.5,1.2,0.5c0.4,0,0.9-0.2,1.1-0.5l0,0c0.3-0.3,0.5-0.7,0.5-1.2s-0.2-0.9-0.5-1.2l0,0c-0.3-0.3-0.7-0.5-1.1-0.5
	c-0.5,0-0.9,0.2-1.2,0.5h0c-0.3,0.3-0.5,0.7-0.5,1.2S17.7,16.2,18,16.5L18,16.5L18,16.5z M18.8,15L18.8,15L18.8,15
	c0.1-0.1,0.2-0.1,0.3-0.1c0.1,0,0.2,0.1,0.3,0.1v0c0.1,0.1,0.1,0.2,0.1,0.3c0,0.1,0,0.3-0.1,0.3l0,0c-0.1,0.1-0.2,0.1-0.3,0.1
	c-0.1,0-0.3-0.1-0.3-0.1l0,0c-0.1-0.1-0.1-0.2-0.1-0.3C18.7,15.2,18.7,15.1,18.8,15L18.8,15z M4.7,20.9L4.7,20.9
	c0.3,0.3,0.7,0.5,1.1,0.5c0.5,0,0.9-0.2,1.2-0.5v0c0.3-0.3,0.5-0.7,0.5-1.2S7.3,18.8,7,18.5l0,0c-0.3-0.3-0.7-0.5-1.2-0.5
	c-0.4,0-0.9,0.2-1.1,0.5h0c-0.3,0.3-0.5,0.7-0.5,1.2C4.2,20.1,4.4,20.6,4.7,20.9L4.7,20.9L4.7,20.9z M5.5,19.4L5.5,19.4L5.5,19.4
	c0.1-0.1,0.2-0.1,0.3-0.1c0.1,0,0.3,0.1,0.3,0.1v0c0.1,0.1,0.1,0.2,0.1,0.3c0,0.1-0.1,0.3-0.1,0.3l0,0c-0.1,0.1-0.2,0.1-0.3,0.1
	c-0.1,0-0.3,0-0.3-0.1h0c-0.1-0.1-0.1-0.2-0.1-0.3C5.4,19.6,5.4,19.4,5.5,19.4L5.5,19.4z M9.1,20.9L9.1,20.9
	c0.3,0.3,0.7,0.5,1.2,0.5s0.9-0.2,1.2-0.5v0c0.3-0.3,0.5-0.7,0.5-1.2s-0.2-0.9-0.5-1.2c-0.3-0.3-0.7-0.5-1.2-0.5s-0.9,0.2-1.2,0.5
	l0,0c-0.3,0.3-0.5,0.7-0.5,1.2C8.6,20.1,8.8,20.6,9.1,20.9L9.1,20.9L9.1,20.9z M9.9,19.4L9.9,19.4L9.9,19.4c0.1-0.1,0.2-0.1,0.3-0.1
	c0.1,0,0.3,0.1,0.3,0.1v0c0.1,0.1,0.1,0.2,0.1,0.3c0,0.1-0.1,0.3-0.1,0.3l0,0c-0.1,0.1-0.2,0.1-0.3,0.1c-0.1,0-0.3,0-0.3-0.1h0
	c-0.1-0.1-0.1-0.2-0.1-0.3C9.8,19.6,9.9,19.4,9.9,19.4L9.9,19.4z M18,12.1L18,12.1c0.3,0.3,0.7,0.5,1.2,0.5c0.4,0,0.9-0.2,1.1-0.5
	c0.3-0.3,0.5-0.7,0.5-1.2c0-0.5-0.2-0.9-0.5-1.2l0,0c-0.3-0.3-0.7-0.5-1.1-0.5c-0.5,0-0.9,0.2-1.2,0.5h0c-0.3,0.3-0.5,0.7-0.5,1.2
	C17.5,11.4,17.7,11.8,18,12.1L18,12.1L18,12.1z M18.8,10.6L18.8,10.6L18.8,10.6c0.1-0.1,0.2-0.1,0.3-0.1c0.1,0,0.2,0.1,0.3,0.1l0,0
	c0.1,0.1,0.1,0.2,0.1,0.3c0,0.1,0,0.3-0.1,0.3c-0.1,0.1-0.2,0.1-0.3,0.1c-0.1,0-0.3,0-0.3-0.1c-0.1-0.1-0.1-0.2-0.1-0.3
	C18.7,10.9,18.7,10.7,18.8,10.6L18.8,10.6z M9.1,12.1L9.1,12.1c0.3,0.3,0.7,0.5,1.2,0.5c0.5,0,0.9-0.2,1.2-0.5
	c0.3-0.3,0.5-0.7,0.5-1.2c0-0.5-0.2-0.9-0.5-1.2c-0.3-0.3-0.7-0.5-1.2-0.5S9.4,9.5,9.1,9.8l0,0c-0.3,0.3-0.5,0.7-0.5,1.2
	C8.6,11.4,8.8,11.8,9.1,12.1L9.1,12.1L9.1,12.1z M9.9,10.6L9.9,10.6L9.9,10.6c0.1-0.1,0.2-0.1,0.3-0.1c0.1,0,0.3,0.1,0.3,0.1
	c0.1,0.1,0.1,0.2,0.1,0.3c0,0.1-0.1,0.3-0.1,0.3c-0.1,0.1-0.2,0.1-0.3,0.1s-0.3,0-0.3-0.1c-0.1-0.1-0.1-0.2-0.1-0.3
	C9.8,10.9,9.9,10.7,9.9,10.6L9.9,10.6z M13.6,20.9L13.6,20.9c0.3,0.3,0.7,0.5,1.2,0.5c0.4,0,0.9-0.2,1.1-0.5l0,0
	c0.3-0.3,0.5-0.7,0.5-1.2s-0.2-0.9-0.5-1.2h0c-0.3-0.3-0.7-0.5-1.1-0.5c-0.5,0-0.9,0.2-1.2,0.5c-0.3,0.3-0.5,0.7-0.5,1.2
	C13.1,20.1,13.3,20.6,13.6,20.9L13.6,20.9L13.6,20.9z M14.4,19.4L14.4,19.4L14.4,19.4c0.1-0.1,0.2-0.1,0.3-0.1
	c0.1,0,0.3,0.1,0.3,0.1l0,0c0.1,0.1,0.1,0.2,0.1,0.3c0,0.1-0.1,0.3-0.1,0.3h0c-0.1,0.1-0.2,0.1-0.3,0.1c-0.1,0-0.3,0-0.3-0.1l0,0
	c-0.1-0.1-0.1-0.2-0.1-0.3C14.2,19.6,14.3,19.4,14.4,19.4L14.4,19.4z M13.6,16.5L13.6,16.5c0.3,0.3,0.7,0.5,1.2,0.5
	c0.4,0,0.9-0.2,1.1-0.5h0c0.3-0.3,0.5-0.7,0.5-1.2s-0.2-0.9-0.5-1.2h0c-0.3-0.3-0.7-0.5-1.1-0.5c-0.5,0-0.9,0.2-1.2,0.5l0,0
	c-0.3,0.3-0.5,0.7-0.5,1.2S13.3,16.2,13.6,16.5L13.6,16.5z M14.4,15L14.4,15L14.4,15c0.1-0.1,0.2-0.1,0.3-0.1c0.1,0,0.3,0.1,0.3,0.1
	l0,0c0.1,0.1,0.1,0.2,0.1,0.3c0,0.1-0.1,0.3-0.1,0.3h0c-0.1,0.1-0.2,0.1-0.3,0.1c-0.1,0-0.3-0.1-0.3-0.1l0,0
	c-0.1-0.1-0.1-0.2-0.1-0.3C14.2,15.2,14.3,15.1,14.4,15L14.4,15z M13.6,12.1L13.6,12.1c0.3,0.3,0.7,0.5,1.2,0.5
	c0.4,0,0.9-0.2,1.2-0.5c0.3-0.3,0.5-0.7,0.5-1.2c0-0.5-0.2-0.9-0.5-1.2h0c-0.3-0.3-0.7-0.5-1.1-0.5c-0.5,0-0.9,0.2-1.2,0.5
	c-0.3,0.3-0.5,0.7-0.5,1.2C13.1,11.4,13.3,11.8,13.6,12.1L13.6,12.1L13.6,12.1z M14.4,10.6L14.4,10.6L14.4,10.6
	c0.1-0.1,0.2-0.1,0.3-0.1c0.1,0,0.3,0.1,0.3,0.1h0c0.1,0.1,0.1,0.2,0.1,0.3c0,0.1-0.1,0.3-0.1,0.3c-0.1,0.1-0.2,0.1-0.3,0.1
	c-0.1,0-0.3,0-0.3-0.1c-0.1-0.1-0.1-0.2-0.1-0.3C14.2,10.9,14.3,10.7,14.4,10.6L14.4,10.6z M9.1,16.5L9.1,16.5
	c0.3,0.3,0.7,0.5,1.2,0.5s0.9-0.2,1.2-0.5c0.3-0.3,0.5-0.7,0.5-1.2s-0.2-0.9-0.5-1.2l0,0c-0.3-0.3-0.7-0.5-1.2-0.5s-0.9,0.2-1.2,0.5
	l0,0c-0.3,0.3-0.5,0.7-0.5,1.2S8.8,16.2,9.1,16.5L9.1,16.5L9.1,16.5z M9.9,15L9.9,15L9.9,15c0.1-0.1,0.2-0.1,0.3-0.1
	c0.1,0,0.3,0.1,0.3,0.1v0c0.1,0.1,0.1,0.2,0.1,0.3c0,0.1-0.1,0.3-0.1,0.3c-0.1,0.1-0.2,0.1-0.3,0.1c-0.1,0-0.3-0.1-0.3-0.1h0
	c-0.1-0.1-0.1-0.2-0.1-0.3C9.8,15.2,9.9,15.1,9.9,15L9.9,15z"/>
</svg>
