<?xml version="1.0" encoding="utf-8"?>
<!-- Generator: Adobe Illustrator 22.1.0, SVG Export Plug-In . SVG Version: 6.00 Build 0)  -->
<svg version="1.1" id="Layer_1" xmlns="http://www.w3.org/2000/svg" xmlns:xlink="http://www.w3.org/1999/xlink" x="0px" y="0px"
	 viewBox="0 0 25 25" style="enable-background:new 0 0 25 25;" xml:space="preserve">
<style type="text/css">
	.st0{fill:#BEBEBE;}
	.st1{fill:none;}
</style>
<path class="st0" d="M24.2,10.5l-2.2-6.7c-0.5-1.9-0.9-1.9-2-1.9h-7.6H4.9c-1.1,0-1.4,0-2,1.9l-2.2,6.7C0.3,10.7,0,11.1,0,11.6v7
	c0,0.5,0.3,0.9,0.7,1.1v1.5c0,1.1,0.9,1.9,2,1.9h0.4c1.1,0,2-0.9,2-1.9v-0.9c2.3,0.2,5.2,0.5,7.4,0.5c2.2,0,5-0.2,7.4-0.5v0.9
	c0,1.1,0.9,1.9,2,1.9h0.4c1.1,0,2-0.9,2-1.9v-1.5c0.4-0.2,0.7-0.6,0.7-1.1v-7C25,11.1,24.7,10.7,24.2,10.5z M5.2,15.7
	c-0.6,0.6-1.8,0.5-2.7-0.3c-0.8-0.8-1-1.9-0.4-2.6c0.6-0.6,1.8-0.5,2.7,0.3C5.7,13.9,5.9,15,5.2,15.7z M3.1,10.5l1.3-5.7
	c0.5-1.6,0.7-1.6,1.7-1.6h12.8c0.9,0,1.2,0,1.7,1.6l1.3,5.7H3.1z M22.4,15.3c-0.8,0.8-2,1-2.7,0.4c-0.6-0.6-0.5-1.8,0.3-2.6
	c0.8-0.8,2-1,2.7-0.4C23.4,13.4,23.3,14.5,22.4,15.3z"/>
<rect x="0" y="0" class="st1" width="25" height="25"/>
</svg>
