<?xml version="1.0" encoding="utf-8"?>
<!-- Generator: Adobe Illustrator 22.1.0, SVG Export Plug-In . SVG Version: 6.00 Build 0)  -->
<svg version="1.1" id="Layer_1" xmlns="http://www.w3.org/2000/svg" xmlns:xlink="http://www.w3.org/1999/xlink" x="0px" y="0px"
	 viewBox="0 0 25 25" style="enable-background:new 0 0 25 25;" xml:space="preserve">
<style type="text/css">
	.st0{fill:none;}
</style>
<path d="M0,19.6c0-4.7,0-9.4,0-14.1c0.3-0.9,0.7-1.2,1.7-1.2c7.2,0,14.4,0,21.7,0c1,0,1.3,0.2,1.7,1.2c0,4.7,0,9.4,0,14.1
	c-0.3,0.9-0.6,1.2-1.7,1.2c-7.2,0-14.4,0-21.7,0C0.7,20.7,0.3,20.5,0,19.6z M2.3,5.3c0.2,0.2,0.3,0.4,0.5,0.5c2.5,2.7,5,5.4,7.5,8.1
	c1.4,1.5,3,1.5,4.4,0c2.5-2.7,5.1-5.5,7.6-8.2c0.1-0.1,0.2-0.2,0.4-0.4C15.9,5.3,9.1,5.3,2.3,5.3z M1.7,19.7c7.2,0,14.4,0,21.6,0
	c-2.1-2.3-4.2-4.6-6.2-6.9c-0.7,0.7-1.3,1.4-1.9,2c-1.6,1.6-3.8,1.6-5.4,0c-0.5-0.5-1-1-1.4-1.5c-0.1-0.1-0.2-0.3-0.3-0.5
	C5.9,15.1,3.8,17.4,1.7,19.7z M7.3,12.1C5.2,9.9,3.2,7.7,1.2,5.5C1,5.7,0.9,18.2,1.1,18.9C3.2,16.6,5.2,14.4,7.3,12.1z M23.8,5.3
	c-0.2,0.3-0.4,0.6-0.6,0.8c-1.7,1.8-3.4,3.7-5.1,5.5c-0.1,0.2-0.3,0.3-0.4,0.5c2.1,2.3,4.1,4.6,6.2,6.8c0.1-0.1,0.1-0.1,0.1-0.1
	c0-4.3,0-8.6,0-12.9C24,5.7,23.9,5.5,23.8,5.3z"/>
<rect x="0" y="0" class="st0" width="25" height="25"/>
</svg>
