<?xml version="1.0" encoding="utf-8"?>
<svg version="1.1" id="Layer_1" xmlns="http://www.w3.org/2000/svg" xmlns:xlink="http://www.w3.org/1999/xlink" x="0px" y="0px"
	viewBox="0 0 25 25" style="enable-background:new 0 0 25 25;" xml:space="preserve">
	<style type="text/css">
		.st0{fill:none;}
		.st1{fill:;}
	</style>
	<rect y="0" class="st0" width="25" height="25"/>
	<g>
		<path class="st1" d="M23.2,3.8H1.8C0.8,3.8,0,4.6,0,5.6v2.3h25V5.6C25,4.6,24.2,3.8,23.2,3.8z"/>
		<g>
			<path class="st1" d="M22.1,17.4c-0.1-0.1-0.1-0.1-0.2-0.2c-0.1,0-0.2,0-0.3,0c-0.1,0-0.2,0-0.3,0c-0.1,0-0.1,0.1-0.2,0.2
				s-0.1,0.2-0.1,0.3c0,0.1,0,0.3,0,0.4c0,0.2,0,0.3,0,0.4c0,0.1,0.1,0.2,0.1,0.3s0.1,0.1,0.2,0.1c0.1,0,0.2,0,0.3,0
				c0.1,0,0.2,0,0.3,0c0.1,0,0.1-0.1,0.2-0.1s0.1-0.2,0.1-0.3c0-0.1,0.1-0.3,0.1-0.4c0-0.2,0-0.3-0.1-0.4
				C22.2,17.5,22.1,17.4,22.1,17.4z"/>
				<path class="st1" d="M17.5,15.4c0.1,0.1,0.1,0.1,0.2,0.1c0.1,0,0.2,0,0.3,0s0.2,0,0.3,0c0.1,0,0.1-0.1,0.2-0.1
					c0.1-0.1,0.1-0.2,0.1-0.3c0-0.1,0-0.3,0-0.4c0-0.2,0-0.3,0-0.4c0-0.1-0.1-0.2-0.1-0.3c-0.1-0.1-0.1-0.1-0.2-0.2
					c-0.1,0-0.2,0-0.3,0s-0.2,0-0.3,0c-0.1,0-0.1,0.1-0.2,0.2c-0.1,0.1-0.1,0.2-0.1,0.3c0,0.1,0,0.3,0,0.4c0,0.2,0,0.3,0,0.4
					C17.4,15.2,17.4,15.3,17.5,15.4z"/>
					<path class="st1" d="M0,11.6v8.1c0,1,0.8,1.8,1.8,1.8h21.3c1,0,1.8-0.8,1.8-1.8v-8.1H0z M2.4,14.5h6.8v0.9H2.4V14.5z M10.6,17.7
						H2.4v-0.9h8.2V17.7z M16.5,14.7c0-0.3,0-0.5,0.1-0.7c0.1-0.2,0.2-0.4,0.3-0.5c0.1-0.1,0.3-0.2,0.5-0.3c0.2-0.1,0.4-0.1,0.6-0.1
						c0.2,0,0.4,0,0.6,0.1c0.2,0.1,0.3,0.2,0.5,0.3c0.1,0.1,0.2,0.3,0.3,0.5s0.1,0.4,0.1,0.7c0,0.2,0,0.5-0.1,0.7
						c-0.1,0.2-0.2,0.4-0.3,0.5c-0.1,0.1-0.3,0.2-0.5,0.3c-0.2,0.1-0.4,0.1-0.6,0.1c-0.2,0-0.4,0-0.6-0.1c-0.2-0.1-0.3-0.2-0.5-0.3
						c-0.1-0.1-0.2-0.3-0.3-0.5C16.5,15.2,16.5,14.9,16.5,14.7z M17.8,19.6c-0.1,0-0.1,0-0.2,0h-0.8l4.8-6.3c0,0,0.1-0.1,0.1-0.1
						c0.1,0,0.1-0.1,0.2-0.1h0.8L18,19.4C17.9,19.5,17.9,19.5,17.8,19.6z M23,18.7c-0.1,0.2-0.2,0.4-0.3,0.5c-0.1,0.1-0.3,0.2-0.5,0.3
						c-0.2,0.1-0.4,0.1-0.6,0.1c-0.2,0-0.4,0-0.6-0.1c-0.2-0.1-0.3-0.2-0.5-0.3c-0.1-0.1-0.2-0.3-0.3-0.5c-0.1-0.2-0.1-0.4-0.1-0.7
						c0-0.3,0-0.5,0.1-0.7c0.1-0.2,0.2-0.4,0.3-0.5c0.1-0.1,0.3-0.2,0.5-0.3c0.2-0.1,0.4-0.1,0.6-0.1c0.2,0,0.4,0,0.6,0.1
						c0.2,0.1,0.3,0.2,0.5,0.3c0.1,0.1,0.2,0.3,0.3,0.5c0.1,0.2,0.1,0.4,0.1,0.7C23.1,18.3,23.1,18.5,23,18.7z"/>
					</g>
				</g>
			</svg>
