<svg 
 xmlns="http://www.w3.org/2000/svg"
 xmlns:xlink="http://www.w3.org/1999/xlink">
<path fill-rule="evenodd"  fill="rgb(22, 81, 118)"
 d="M24.781,22.177 L19.192,22.177 L19.955,22.935 L19.955,22.935 C20.176,23.154 20.312,23.456 20.312,23.790 C20.312,24.458 19.767,25.000 19.094,25.000 C18.757,25.000 18.453,24.865 18.232,24.646 L18.232,24.646 L15.388,21.823 L15.388,21.823 C15.168,21.604 15.031,21.302 15.031,20.968 C15.031,20.634 15.168,20.331 15.388,20.112 L15.388,20.112 L18.232,17.290 L18.232,17.290 C18.453,17.071 18.757,16.936 19.094,16.936 C19.767,16.936 20.312,17.477 20.312,18.145 C20.312,18.479 20.176,18.782 19.955,19.000 L19.955,19.000 L19.192,19.758 L24.781,19.758 C25.454,19.758 26.000,20.300 26.000,20.968 C26.000,21.636 25.454,22.177 24.781,22.177 ZM21.531,18.145 C21.531,17.812 21.463,17.495 21.341,17.206 C21.632,17.274 22.002,17.405 22.756,17.777 C23.182,17.987 23.537,18.256 23.857,18.549 L21.490,18.549 C21.513,18.416 21.531,18.284 21.531,18.145 ZM17.071,9.791 C16.776,12.038 15.832,12.750 15.832,12.750 L15.854,15.126 C15.854,15.126 16.277,15.366 17.894,16.051 C17.704,16.158 17.531,16.290 17.377,16.441 L17.370,16.435 L14.526,19.257 L14.526,19.257 C14.085,19.695 13.812,20.300 13.812,20.968 C13.812,21.636 14.085,22.241 14.526,22.678 L14.526,22.678 L16.865,25.000 L1.219,25.000 C0.546,25.000 0.000,24.458 0.000,23.790 C0.000,23.789 0.000,23.788 0.000,23.787 L-0.001,23.787 C-0.001,23.787 -0.001,19.379 3.245,17.776 C5.298,16.763 4.507,17.586 7.028,16.548 C9.549,15.511 10.146,15.150 10.146,15.150 L10.170,12.761 C10.170,12.761 9.226,12.044 8.933,9.797 C8.342,9.966 8.147,9.109 8.112,8.562 C8.080,8.035 7.770,6.387 8.491,6.535 C8.343,5.435 8.237,4.443 8.289,3.917 C8.470,2.072 10.261,0.144 13.019,0.003 C16.264,0.143 17.549,2.070 17.729,3.916 C17.782,4.441 17.666,5.435 17.519,6.533 C18.240,6.386 17.926,8.031 17.891,8.559 C17.859,9.105 17.660,9.960 17.071,9.791 ZM21.489,23.387 L24.781,23.387 C25.207,23.387 25.602,23.269 25.950,23.078 C26.000,23.513 26.000,23.787 26.000,23.787 L26.000,23.787 C26.000,23.788 26.000,23.789 26.000,23.790 C26.000,24.458 25.454,25.000 24.781,25.000 L21.193,25.000 C21.403,24.643 21.531,24.233 21.531,23.790 C21.531,23.652 21.512,23.519 21.489,23.387 Z"/>
</svg>