<svg 
 xmlns="http://www.w3.org/2000/svg"
 xmlns:xlink="http://www.w3.org/1999/xlink">
<path fill-rule="evenodd"  fill="rgb(22, 81, 118)"
 d="M20.969,22.000 L1.031,22.000 C0.462,22.000 -0.000,21.538 -0.000,20.969 L-0.000,1.031 C-0.000,0.462 0.462,-0.000 1.031,-0.000 L20.969,-0.000 C21.538,-0.000 22.000,0.462 22.000,1.031 L22.000,20.969 C22.000,21.538 21.538,22.000 20.969,22.000 ZM19.937,2.062 L2.062,2.062 L2.062,19.937 L19.937,19.937 L19.937,2.062 ZM4.125,14.781 L6.187,14.781 C6.757,14.781 7.219,15.243 7.219,15.813 L7.219,17.875 C7.219,18.445 6.757,18.906 6.187,18.906 L4.125,18.906 C3.555,18.906 3.094,18.445 3.094,17.875 L3.094,15.813 C3.094,15.243 3.555,14.781 4.125,14.781 ZM9.969,5.500 L12.031,5.500 C12.601,5.500 13.062,5.962 13.062,6.531 L13.062,17.875 C13.062,18.445 12.601,18.906 12.031,18.906 L9.969,18.906 C9.399,18.906 8.938,18.445 8.938,17.875 L8.938,6.531 C8.938,5.962 9.399,5.500 9.969,5.500 ZM15.812,9.625 L17.875,9.625 C18.445,9.625 18.906,10.087 18.906,10.656 L18.906,17.875 C18.906,18.445 18.445,18.906 17.875,18.906 L15.812,18.906 C15.243,18.906 14.781,18.445 14.781,17.875 L14.781,10.656 C14.781,10.087 15.243,9.625 15.812,9.625 Z"/>
</svg>