<svg 
 xmlns="http://www.w3.org/2000/svg"
 xmlns:xlink="http://www.w3.org/1999/xlink">
<path fill-rule="evenodd"  fill="rgb(22, 81, 118)"
 d="M30.008,18.471 C29.848,18.694 29.594,18.814 29.335,18.814 C29.173,18.814 29.009,18.767 28.866,18.669 C28.495,18.414 28.404,17.913 28.664,17.549 C29.758,16.013 30.360,14.077 30.360,12.096 C30.360,10.108 29.784,8.238 28.694,6.688 C28.437,6.321 28.531,5.821 28.904,5.569 C29.277,5.317 29.787,5.409 30.044,5.774 C31.324,7.595 32.000,9.781 32.000,12.096 C32.000,14.437 31.311,16.641 30.008,18.471 ZM27.326,16.198 C27.167,16.422 26.912,16.542 26.654,16.542 C26.492,16.542 26.328,16.495 26.185,16.397 C25.814,16.143 25.723,15.641 25.982,15.277 C26.618,14.385 26.967,13.259 26.967,12.106 C26.967,10.948 26.633,9.860 26.000,8.959 C25.743,8.594 25.837,8.093 26.210,7.841 C26.582,7.589 27.093,7.681 27.350,8.046 C28.172,9.217 28.607,10.620 28.607,12.106 C28.607,13.607 28.164,15.022 27.326,16.198 ZM24.116,23.662 C24.116,23.662 24.116,23.662 24.116,23.662 C23.846,23.662 23.581,23.495 23.329,23.164 C23.302,23.130 20.507,19.581 13.523,17.464 C12.997,17.305 12.366,17.156 11.673,17.018 C11.555,16.995 11.337,16.972 11.232,17.122 C10.988,17.471 10.621,17.743 10.159,17.743 C10.159,17.743 9.875,17.743 9.780,17.743 C9.513,17.743 9.584,18.000 9.584,18.000 L11.449,26.333 C11.545,26.762 11.451,27.188 11.193,27.504 C10.934,27.819 10.530,28.000 10.083,28.000 L7.879,28.000 C7.005,28.000 6.173,27.344 5.986,26.506 L4.077,17.977 C4.077,17.977 4.031,17.743 3.795,17.743 C3.662,17.743 3.261,17.743 3.261,17.743 C2.583,17.743 2.031,17.202 2.031,16.536 L2.031,16.098 C2.031,15.857 1.892,15.809 1.837,15.804 C1.695,15.793 1.614,15.787 1.607,15.787 C0.721,15.724 -0.000,14.964 -0.000,14.092 L-0.000,9.569 C-0.000,8.698 0.721,7.938 1.607,7.875 C1.613,7.874 1.669,7.870 1.768,7.863 C1.836,7.858 2.031,7.846 2.031,7.574 L2.031,7.126 C2.031,6.461 2.583,5.919 3.261,5.919 L10.159,5.919 C10.623,5.919 11.027,6.173 11.236,6.546 C11.266,6.599 11.354,6.677 11.730,6.632 C12.410,6.550 13.012,6.352 13.523,6.198 C20.507,4.085 23.302,0.533 23.329,0.497 C23.581,0.168 23.846,-0.000 24.116,-0.000 C24.231,-0.000 24.804,0.047 24.804,0.980 L24.804,22.682 C24.804,22.929 24.765,23.135 24.687,23.290 C24.569,23.527 24.361,23.662 24.116,23.662 Z"/>
</svg>