<svg 
 xmlns="http://www.w3.org/2000/svg"
 xmlns:xlink="http://www.w3.org/1999/xlink">
<path fill-rule="evenodd"  fill="rgb(255, 255, 255)"
 d="M62.246,35.024 C62.029,35.531 61.582,35.872 61.078,35.979 C60.762,36.045 60.423,36.020 60.104,35.885 C59.275,35.536 58.890,34.583 59.245,33.758 C60.739,30.277 61.110,26.207 60.287,22.298 C59.462,18.375 57.563,14.921 54.795,12.309 C54.143,11.692 54.118,10.665 54.740,10.015 C55.361,9.364 56.395,9.336 57.047,9.952 C60.296,13.018 62.522,17.055 63.483,21.624 C64.454,26.243 64.027,30.877 62.246,35.024 ZM56.077,31.642 C55.860,32.149 55.413,32.491 54.909,32.597 C54.593,32.664 54.254,32.638 53.935,32.503 C53.106,32.154 52.721,31.202 53.076,30.377 C53.944,28.355 54.158,25.988 53.679,23.712 C53.199,21.427 52.095,19.418 50.488,17.901 C49.835,17.285 49.810,16.258 50.432,15.607 C51.054,14.956 52.087,14.928 52.740,15.544 C54.828,17.515 56.258,20.106 56.875,23.038 C57.498,26.001 57.222,28.976 56.077,31.642 ZM53.877,46.725 C53.745,47.240 53.396,47.593 52.919,47.694 C52.919,47.694 52.919,47.694 52.919,47.694 C52.393,47.805 51.807,47.583 51.178,47.035 C51.111,46.977 44.192,41.122 29.702,39.818 C28.612,39.720 27.320,39.686 25.912,39.698 C25.672,39.700 25.239,39.746 25.096,40.085 C24.765,40.874 24.161,41.561 23.263,41.750 C23.263,41.750 22.708,41.867 22.523,41.907 C22.004,42.016 22.248,42.495 22.248,42.495 L29.342,58.175 C29.706,58.982 29.702,59.862 29.328,60.590 C28.956,61.319 28.242,61.842 27.370,62.026 L23.077,62.932 C21.373,63.292 19.479,62.339 18.766,60.762 L11.506,44.714 C11.506,44.714 11.319,44.271 10.860,44.368 C10.600,44.423 9.819,44.588 9.819,44.588 C8.498,44.866 7.198,44.025 6.922,42.713 L6.740,41.848 C6.640,41.371 6.349,41.333 6.238,41.347 C5.958,41.384 5.798,41.406 5.783,41.408 C4.030,41.648 2.310,40.444 1.948,38.724 L0.071,29.798 C-0.290,28.079 0.799,26.282 2.499,25.793 C2.511,25.789 2.619,25.758 2.809,25.703 C2.939,25.664 3.315,25.560 3.202,25.025 L3.015,24.139 C2.739,22.826 3.590,21.532 4.911,21.253 L18.355,18.416 C19.259,18.225 20.150,18.559 20.713,19.209 C20.793,19.302 20.998,19.418 21.712,19.175 C23.003,18.735 24.094,18.096 25.025,17.581 C37.760,10.540 41.732,2.379 41.771,2.298 C42.125,1.543 42.571,1.103 43.098,0.992 C43.322,0.945 44.458,0.802 44.845,2.644 L53.854,45.477 C53.956,45.965 53.964,46.386 53.877,46.725 Z"/>
</svg>