<?xml version="1.0" encoding="utf-8"?>
<!-- Generator: Adobe Illustrator 22.1.0, SVG Export Plug-In . SVG Version: 6.00 Build 0)  -->
<svg version="1.1" id="Layer_1" xmlns="http://www.w3.org/2000/svg" xmlns:xlink="http://www.w3.org/1999/xlink" x="0px" y="0px"
	 viewBox="0 0 25 25" style="enable-background:new 0 0 25 25;" xml:space="preserve">
<style type="text/css">
	.st0{fill:#393F52;}
	.st1{fill:none;}
</style>
<path class="st0" d="M24.6,13.3c0,0-0.6,1-0.6,1v6.6c0,0.7-0.6,1.2-1.3,1.2l-20.2,0c-0.7,0-1.3-0.6-1.3-1.2V9.5c0,0-0.8-1.4-0.8-1.4
	C0.1,7.6,0,7.1,0,6.5c0-1.8,1.6-3.4,3.5-3.4c1,0,1.9,0.3,2.5,1c0.2,0.2,0.3,0.3,0.4,0.5l16.3,0c0.7,0,1.3,0.6,1.3,1.2v3.5
	c0.6,0.6,1,1.5,1,2.4C25,12.3,24.9,12.8,24.6,13.3z M15.3,21.1l4.8,0l-3-2.9l-2.4,2.3L15.3,21.1z M16.5,17.6l-1.7-1.7l-2.4,2.3
	l1.7,1.7L16.5,17.6z M11.7,17.6l2.4-2.3l-3.1-3l-2.4,2.3L11.7,17.6z M7,14.4L4.3,17l2.2,2.1l2.7-2.6L7,14.4z M14,21.1l-4.1-4
	l-2.7,2.6l1.4,1.4L14,21.1z M2.3,20.9c0,0.1,0.1,0.2,0.3,0.2l4.7,0l-3.6-3.5l-1.3,1.3V20.9z M5.7,5.4C5.7,5.4,5.7,5.3,5.7,5.4
	C5.6,5.1,5.5,5,5.3,4.8C4.8,4.4,4.2,4.1,3.5,4.1C2.2,4.1,1,5.2,1,6.5c0,0.4,0.1,0.8,0.3,1.1l2.2,3.6l2.2-3.6C5.9,7.3,6,6.9,6,6.5
	C6,6.1,5.9,5.7,5.7,5.4z M6.9,5.6C7,5.9,7.1,6.2,7.1,6.5c0,0.5-0.1,1.1-0.4,1.6c0,0-2.3,3.6-2.3,3.6c-0.2,0.3-0.5,0.5-0.9,0.5
	S2.8,12,2.6,11.7l-0.4-0.6v6.5l4.1-3.9l-1-1c-0.2-0.2-0.2-0.5,0-0.6c0.2-0.2,0.5-0.2,0.7,0l2,1.9l2.4-2.3l-3-2.9
	c-0.2-0.2-0.2-0.5,0-0.6C7.5,8,7.8,8,8,8.1l1.5,1.4l4.1-3.9L6.9,5.6z M10.1,10.2l1.2,1.2l0,0l0,0l1.6,1.5l4.4-4.2L14.5,6L10.1,10.2z
	 M15.4,5.6L17.9,8l2.5-2.4L15.4,5.6z M23,5.9c0-0.1-0.1-0.2-0.3-0.2h-0.9l-5.7,5.5L17,12c0.2,0.2,0.2,0.5,0,0.7
	c-0.1,0.1-0.2,0.1-0.4,0.1c-0.1,0-0.3,0-0.4-0.1l-0.9-0.9l-1.8,1.7l1.5,1.4h0l0,0l2.1,2l1.1-1.1c0.2-0.2,0.5-0.2,0.7,0
	c0.2,0.2,0.2,0.5,0,0.6l-1.1,1.1l3.6,3.5l1.3,0c0.1,0,0.3-0.1,0.3-0.2l0,0V16l-0.6,1c-0.2,0.3-0.5,0.5-0.9,0.5
	c-0.4,0-0.7-0.2-0.9-0.5c0,0-2.3-3.6-2.3-3.6c-0.3-0.5-0.4-1-0.4-1.6c0-1.8,1.6-3.4,3.5-3.4c0.5,0,1.1,0.1,1.6,0.3V5.9z M23.2,10
	c-0.5-0.5-1.1-0.7-1.8-0.7c-1.3,0-2.5,1.1-2.5,2.4c0,0.4,0.1,0.8,0.3,1.1l2.2,3.6l1.6-2.5c0,0,0,0,0,0l0.7-1.1
	c0.2-0.3,0.3-0.7,0.3-1.1C24,11.1,23.7,10.5,23.2,10z M21.5,13.2c-0.8,0-1.4-0.6-1.4-1.4s0.6-1.4,1.4-1.4c0.8,0,1.4,0.6,1.4,1.4
	S22.3,13.2,21.5,13.2z M21.5,11.4c-0.2,0-0.4,0.2-0.4,0.4c0,0.2,0.2,0.4,0.4,0.4c0.2,0,0.4-0.2,0.4-0.4
	C21.9,11.5,21.7,11.4,21.5,11.4z M3.5,7.9c-0.8,0-1.4-0.6-1.4-1.4s0.6-1.4,1.4-1.4S5,5.8,5,6.5S4.3,7.9,3.5,7.9z M3.5,6.1
	c-0.2,0-0.4,0.2-0.4,0.4c0,0.2,0.2,0.4,0.4,0.4s0.4-0.2,0.4-0.4C3.9,6.3,3.8,6.1,3.5,6.1z"/>
<rect x="0" class="st1" width="25" height="25"/>
</svg>
