<svg 
 xmlns="http://www.w3.org/2000/svg"
 xmlns:xlink="http://www.w3.org/1999/xlink">
<path fill-rule="evenodd"  fill="rgb(77, 77, 77)"
 d="M15.341,30.000 L2.659,30.000 C1.193,30.000 -0.000,28.795 -0.000,27.314 L-0.000,2.686 C-0.000,1.205 1.193,0.000 2.659,0.000 L15.341,0.000 C16.807,0.000 18.000,1.205 18.000,2.686 L18.000,27.314 C18.000,28.795 16.807,30.000 15.341,30.000 ZM1.090,25.596 L1.090,27.314 C1.090,28.188 1.794,28.899 2.659,28.899 L15.341,28.899 C16.206,28.899 16.910,28.188 16.910,27.314 L16.910,25.596 L1.090,25.596 ZM1.090,24.495 L16.910,24.495 L16.910,3.991 L1.090,3.991 L1.090,24.495 ZM1.090,2.890 L16.910,2.890 L16.910,2.686 C16.910,1.812 16.206,1.101 15.341,1.101 L2.659,1.101 C1.794,1.101 1.090,1.812 1.090,2.686 L1.090,2.890 ZM10.873,27.798 L7.127,27.798 C6.826,27.798 6.582,27.552 6.582,27.248 C6.582,26.944 6.826,26.697 7.127,26.697 L10.873,26.697 C11.174,26.697 11.418,26.944 11.418,27.248 C11.418,27.552 11.174,27.798 10.873,27.798 ZM13.037,20.109 L4.963,20.109 C4.662,20.109 4.418,19.862 4.418,19.559 L4.418,14.483 L3.500,14.483 C3.280,14.483 3.081,14.349 2.997,14.143 C2.912,13.938 2.959,13.701 3.115,13.543 L8.615,7.988 C8.827,7.773 9.173,7.773 9.385,7.988 L14.885,13.543 C15.041,13.701 15.088,13.938 15.003,14.143 C14.919,14.349 14.720,14.483 14.500,14.483 L13.582,14.483 L13.582,19.559 C13.582,19.862 13.338,20.109 13.037,20.109 ZM5.508,19.008 L12.492,19.008 L12.492,13.933 C12.492,13.629 12.736,13.382 13.037,13.382 L13.184,13.382 L9.000,9.156 L4.816,13.382 L4.963,13.382 C5.264,13.382 5.508,13.629 5.508,13.933 L5.508,19.008 L5.508,19.008 Z"/>
</svg>