<?xml version="1.0" encoding="utf-8"?>
<!-- Generator: Adobe Illustrator 22.1.0, SVG Export Plug-In . SVG Version: 6.00 Build 0)  -->
<svg version="1.1" id="Layer_1" xmlns="http://www.w3.org/2000/svg" xmlns:xlink="http://www.w3.org/1999/xlink" x="0px" y="0px"
	 viewBox="0 0 25 25" style="enable-background:new 0 0 25 25;" xml:space="preserve">
<style type="text/css">
	.st0{fill:#394053;}
	.st1{fill:none;}
</style>
<path class="st0" d="M23.8,9.5l-10.1-9c-0.7-0.6-1.8-0.6-2.4,0L1.2,9.6c-0.5,0.5-0.7,1.2-0.5,1.9c0.3,0.7,0.9,1.1,1.7,1.1h1.1v10.5
	c0,1,0.8,1.8,1.8,1.8h4.5v-7.8h5.4V25h4.5c1,0,1.8-0.8,1.8-1.8V12.7h1.1c0.7,0,1.4-0.4,1.7-1.1C24.5,10.8,24.3,10,23.8,9.5z
	 M23.1,11.1c0,0.1-0.2,0.4-0.6,0.4h-2.1v0h-0.2v11.7c0,0.3-0.3,0.6-0.6,0.6h-3.3V16H8.6v7.8H5.3c-0.3,0-0.6-0.3-0.6-0.6V11.5H4.4v0
	h-2c-0.4,0-0.5-0.3-0.6-0.4c0-0.1-0.1-0.4,0.2-0.6l10.1-9.1c0.2-0.2,0.6-0.2,0.8,0l10.1,9C23.3,10.7,23.2,11,23.1,11.1z"/>
<rect class="st1" width="25" height="25"/>
</svg>
