<?xml version="1.0" encoding="utf-8"?>
<!-- Generator: Adobe Illustrator 22.1.0, SVG Export Plug-In . SVG Version: 6.00 Build 0)  -->
<svg version="1.1" id="Layer_1" xmlns="http://www.w3.org/2000/svg" xmlns:xlink="http://www.w3.org/1999/xlink" x="0px" y="0px"
	 viewBox="0 0 25 25" style="enable-background:new 0 0 25 25;" xml:space="preserve">
<style type="text/css">
	.st0{fill:none;}
</style>
<rect y="0" class="st0" width="25" height="25"/>
<path d="M23.8,23c-7.5,0-15.1,0-22.6,0c-0.9-0.4-1.2-1-1.2-2c0-5,0-10,0-15c0-1.3,0.6-1.9,1.9-1.9c1.8,0,3.7,0,5.5,0
	C7.8,4.1,8,4,8,3.6c0-0.4,0.1-0.8,0.2-1.2c0.1-0.6,0.5-1,1.2-1c2,0,4.1,0,6.1,0c0.7,0,1,0.4,1.2,1c0.1,0.5,0.2,1.1,0.3,1.7
	c0.2,0,0.4,0,0.6,0c1.8,0,3.6,0,5.3,0c1,0,1.7,0.3,2.1,1.3c0,5.4,0,10.9,0,16.3C24.8,22.3,24.4,22.7,23.8,23z M18.4,13.5
	c0-3.2-2.6-5.9-5.9-5.9c-3.2,0-5.9,2.6-5.9,5.9c0,3.2,2.6,5.9,5.9,5.9C15.7,19.4,18.4,16.8,18.4,13.5z M4.6,8c0.5,0,1-0.5,1-1
	c0-0.5-0.5-1-1-1c-0.5,0-1,0.5-1,1C3.6,7.5,4,8,4.6,8z"/>
<path d="M12.5,18.3c2.6,0,4.8-2.2,4.8-4.8c0-2.6-2.2-4.7-4.7-4.7c-2.6,0-4.8,2.2-4.8,4.8C7.8,16.2,9.9,18.3,12.5,18.3z"/>
</svg>
