<?xml version="1.0" encoding="utf-8"?>
<svg version="1.1" id="Layer_1" xmlns="http://www.w3.org/2000/svg" xmlns:xlink="http://www.w3.org/1999/xlink" x="0px" y="0px"
	 viewBox="0 0 25 25" style="enable-background:new 0 0 25 25;" xml:space="preserve">
<style type="text/css">
	.st0{fill:none;}
	.st1{}
</style>
<rect y="0" class="st0" width="25" height="25"/>
<g>
	<path class="st1" d="M24.2,6h-9.6v1.6c0,1.1-0.9,2-2,2s-2-0.9-2-2V6H0.8C0.4,6,0,6.4,0,6.8v13.3C0,20.6,0.4,21,0.8,21h23.3
		c0.5,0,0.8-0.4,0.8-0.8V6.8C25,6.4,24.6,6,24.2,6z M5.8,9.2c1.2,0,2.1,0.9,2.1,2.2c0,1.2-0.9,2.1-2.2,2.1c-1.2,0-2.2-0.9-2.2-2.1
		C3.7,10.1,4.6,9.2,5.8,9.2z M9.8,16.7c-0.1,0.7-0.6,1.2-1.4,1.2c-0.9,0-1.7,0-2.6,0c-0.8,0-1.6,0-2.5,0c-0.9,0-1.5-0.6-1.5-1.5
		c0-0.7,0.1-1.4,0.4-2.1c0.2-0.5,0.6-0.9,1.2-1c0.3-0.1,0.5-0.1,0.7,0.1c0.5,0.3,1,0.6,1.6,0.6c0.6,0,1.1-0.1,1.5-0.4
		c0.1,0,0.1-0.1,0.2-0.1c0.2-0.1,0.4-0.3,0.7-0.2c0.3,0.1,0.6,0.2,0.9,0.4c0.3,0.3,0.5,0.7,0.6,1.2C9.8,15.4,9.9,16,9.8,16.7z
		 M17.6,17.6h-3.3c-0.2,0-0.4-0.2-0.4-0.4s0.2-0.4,0.4-0.4h3.3c0.2,0,0.4,0.2,0.4,0.4S17.8,17.6,17.6,17.6z M21.7,15.9h-7.5
		c-0.2,0-0.4-0.2-0.4-0.4c0-0.2,0.2-0.4,0.4-0.4h7.5c0.2,0,0.4,0.2,0.4,0.4C22.1,15.7,21.9,15.9,21.7,15.9z M21.7,14.2h-7.5
		c-0.2,0-0.4-0.2-0.4-0.4c0-0.2,0.2-0.4,0.4-0.4h7.5c0.2,0,0.4,0.2,0.4,0.4C22.1,14,21.9,14.2,21.7,14.2z M21.7,12.5h-7.5
		c-0.2,0-0.4-0.2-0.4-0.4c0-0.2,0.2-0.4,0.4-0.4h7.5c0.2,0,0.4,0.2,0.4,0.4C22.1,12.3,21.9,12.5,21.7,12.5z M21.7,10.9h-7.5
		c-0.2,0-0.4-0.2-0.4-0.4c0-0.2,0.2-0.4,0.4-0.4h7.5c0.2,0,0.4,0.2,0.4,0.4C22.1,10.7,21.9,10.9,21.7,10.9z"/>
	<path class="st1" d="M12.5,3.1c-0.7,0-1.2,0.6-1.2,1.3v3.3c0,0.7,0.6,1.3,1.2,1.3s1.2-0.6,1.2-1.3V4.3C13.8,3.7,13.2,3.1,12.5,3.1z
		 M12.5,6.8c-0.5,0-0.8-0.4-0.8-0.8s0.4-0.8,0.8-0.8s0.8,0.4,0.8,0.8S13,6.8,12.5,6.8z"/>
</g>
</svg>
