<?xml version="1.0" encoding="utf-8"?>
<svg version="1.1" id="Layer_1" xmlns="http://www.w3.org/2000/svg" xmlns:xlink="http://www.w3.org/1999/xlink" x="0px" y="0px"
	 viewBox="0 0 25 25" style="enable-background:new 0 0 25 25;" xml:space="preserve">
<style type="text/css">
	.st0{fill:;}
	.st1{fill:none;}
</style>
<path class="st0" d="M22.8,0H2.2C2.2,0,0,0,0,2.3v15.1c0,0,0,2.3,2.2,2.3h6.5L7,25l9.5-5.3h6.3c0,0,2.2,0,2.2-2.3V2.3
	C24.9,2.3,24.9,0,22.8,0z M19.7,10.5c-1.5,2.7-4.3,4.4-7.5,4.4c-3.2,0-6-1.7-7.5-4.4c-0.1-0.3,0-0.6,0.2-0.8c0.3-0.1,0.6,0,0.8,0.2
	c1.2,2.4,3.7,3.8,6.5,3.8c2.7,0,5.2-1.5,6.4-3.8c0.1-0.3,0.5-0.4,0.8-0.2C19.8,9.9,19.9,10.3,19.7,10.5z"/>
<rect y="0" class="st1" width="25" height="25"/>
</svg>
