<?xml version="1.0" encoding="utf-8"?>
<svg version="1.1" id="Layer_1" xmlns="http://www.w3.org/2000/svg" xmlns:xlink="http://www.w3.org/1999/xlink" x="0px" y="0px"
	 viewBox="0 0 25 25" style="enable-background:new 0 0 25 25;" xml:space="preserve">
<style type="text/css">
	.st0{fill:;}
	.st1{fill:none;}
</style>
<path class="st0" d="M23.7,10.9L13.1,0.3c-0.5-0.5-1.2-0.5-1.6,0L1.3,10.6c-0.5,0.5-0.9,1.3-0.4,1.7h2.9v11.4c0,0.7,0.5,1.2,1.2,1.2
	h6c0,0,0-0.1,0-0.1v-5c0-0.3,0.3-0.6,0.6-0.6h1.9c0.3,0,0.6,0.3,0.6,0.6v5c0,0,0,0.1,0,0.1h6c0.6,0,1.2-0.5,1.2-1.2v-11h2.9
	C24.6,12.3,24.2,11.3,23.7,10.9z M9.5,16.5c0,0.3-0.3,0.6-0.6,0.6h-2c-0.3,0-0.6-0.3-0.6-0.6v-2.1c0-0.3,0.3-0.6,0.6-0.6h2
	c0.3,0,0.6,0.3,0.6,0.6V16.5z M19.1,16.5c0,0.3-0.3,0.6-0.6,0.6h-2c-0.3,0-0.6-0.3-0.6-0.6v-2.1c0-0.3,0.3-0.6,0.6-0.6h2
	c0.3,0,0.6,0.3,0.6,0.6V16.5z"/>
<rect y="0" class="st1" width="25" height="25"/>
</svg>
