<svg 
 xmlns="http://www.w3.org/2000/svg"
 xmlns:xlink="http://www.w3.org/1999/xlink">
<path fill-rule="evenodd"  fill="rgb(178, 189, 202)"
 d="M14.800,13.836 L10.931,9.967 C11.771,8.917 12.273,7.585 12.273,6.136 C12.273,2.747 9.526,0.000 6.136,0.000 C2.747,0.000 -0.000,2.747 -0.000,6.136 C-0.000,9.525 2.747,12.273 6.136,12.273 C7.585,12.273 8.917,11.771 9.967,10.931 L13.836,14.800 C13.969,14.933 14.144,15.000 14.318,15.000 C14.493,15.000 14.667,14.933 14.800,14.800 C15.067,14.534 15.067,14.102 14.800,13.836 ZM6.136,10.909 C3.500,10.909 1.364,8.772 1.364,6.136 C1.364,3.501 3.500,1.363 6.136,1.363 C8.772,1.363 10.909,3.501 10.909,6.136 C10.909,8.772 8.772,10.909 6.136,10.909 Z"/>
</svg>