<svg  xmlns="http://www.w3.org/2000/svg" xmlns:xlink="http://www.w3.org/1999/xlink"> <path fill-rule="evenodd"  fill="rgb(22, 81, 118)" d="M29.394,8.549 L29.380,8.559 C29.380,8.559 29.380,8.559 29.380,8.559 L17.207,16.883 L17.206,16.881 C16.979,17.037 16.704,17.130 16.406,17.130 C16.118,17.130 15.850,17.043 15.626,16.896 L15.626,16.896 L15.621,16.893 C15.621,16.892 15.620,16.892 15.619,16.892 L9.328,12.750 L2.813,16.535 L2.813,22.222 L28.594,22.222 C29.370,22.222 30.000,22.844 30.000,23.611 C30.000,24.378 29.370,25.000 28.594,25.000 L1.406,25.000 C0.630,25.000 0.000,24.378 0.000,23.611 L0.000,1.389 C0.000,0.621 0.630,-0.000 1.406,-0.000 C2.183,-0.000 2.813,0.621 2.813,1.389 L2.813,13.312 L8.662,9.914 L8.665,9.919 C8.874,9.797 9.115,9.722 9.375,9.722 C9.664,9.722 9.931,9.809 10.155,9.956 L10.155,9.956 L10.160,9.959 C10.161,9.959 10.161,9.960 10.162,9.960 L16.391,14.062 L27.793,6.265 L27.794,6.267 C28.021,6.111 28.296,6.018 28.594,6.018 C29.370,6.018 30.000,6.640 30.000,7.407 C30.000,7.880 29.759,8.297 29.393,8.548 L29.394,8.549 Z"/> </svg>