<?xml version="1.0" encoding="utf-8"?>
<!-- Generator: Adobe Illustrator 22.1.0, SVG Export Plug-In . SVG Version: 6.00 Build 0)  -->
<svg version="1.1" id="Layer_1" xmlns="http://www.w3.org/2000/svg" xmlns:xlink="http://www.w3.org/1999/xlink" x="0px" y="0px"
	 viewBox="0 0 25 25" style="enable-background:new 0 0 25 25;" xml:space="preserve">
<style type="text/css">
	.st0{fill:#BEBEBE;}
	.st1{fill:none;}
</style>
<path class="st0" d="M3.7,13V3.2c0-0.9,0.6-1.6,1.4-1.6c0.7,0,1.2,0.5,1.4,1.2C5.9,3.3,5.4,3.9,5.2,4.7C4.9,5.6,4.9,6.5,5.3,7.4
	l0.3,0.7l5.8-3l-0.3-0.7c-0.4-0.9-1-1.5-1.8-1.9C8.8,2.3,8.4,2.3,7.9,2.3C7.5,1,6.4,0,5.1,0C3.5,0,2.2,1.4,2.2,3.2V13H1.2v1.6h1.1
	c0.1,1.7,0.4,3.2,1,4.3c0.5,1,1.3,1.9,2.2,2.5c0.2,0.1,0.4,0.2,0.7,0.4l-1.4,2.3L6.1,25l1.7-2.7c0.6,0.1,1.2,0.2,1.8,0.2h5.9
	c0.7,0,1.3-0.1,1.8-0.2l1.7,2.7l1.2-0.9l-1.4-2.3c0.2-0.1,0.5-0.2,0.7-0.4c0.9-0.6,1.7-1.4,2.3-2.5c0.6-1.2,1-2.6,1-4.3h1.1V13H3.7z
	"/>
<rect class="st1" width="25" height="25"/>
</svg>
