<?xml version="1.0" encoding="utf-8"?>
<!-- Generator: Adobe Illustrator 22.1.0, SVG Export Plug-In . SVG Version: 6.00 Build 0)  -->
<svg version="1.1" id="Layer_1" xmlns="http://www.w3.org/2000/svg" xmlns:xlink="http://www.w3.org/1999/xlink" x="0px" y="0px"
	 viewBox="0 0 25 25" style="enable-background:new 0 0 25 25;" xml:space="preserve">
<style type="text/css">
	.st0{fill:#76D06E;}
	.st1{fill:#2D4C61;}
	.st2{fill:none;}
</style>
<path class="st0" d="M12.5,0C7.3,0,3.1,4.1,3.1,9.2s4.2,9.2,9.4,9.2s9.4-4.1,9.4-9.2S17.7,0,12.5,0z M17.4,9.8
	c0,2.7-2.2,4.9-4.9,4.9l0,0c-2.7,0-4.9-2.2-4.9-4.9V8.6c0-2.7,2.2-4.9,4.9-4.9l0,0c2.7,0,4.9,2.2,4.9,4.9V9.8z"/>
<rect x="3.1" y="21.3" class="st1" width="18.7" height="3.7"/>
<rect y="0" class="st2" width="25" height="25"/>
</svg>
