<?xml version="1.0" encoding="utf-8"?>
<!-- Generator: Adobe Illustrator 22.1.0, SVG Export Plug-In . SVG Version: 6.00 Build 0)  -->
<svg version="1.1" id="Layer_1" xmlns="http://www.w3.org/2000/svg" xmlns:xlink="http://www.w3.org/1999/xlink" x="0px" y="0px"
	 viewBox="0 0 25 25" style="enable-background:new 0 0 25 25;" xml:space="preserve">
<style type="text/css">
	.st0{fill:none;}
	.st1{fill:#39424E;}
</style>
<rect y="0" class="st0" width="25" height="25"/>
<path class="st1" d="M24.4,10.3C24.4,4.6,19,0,12.3,0S0.2,4.6,0.2,10.3C0.2,15,4,19,9.1,20.2l0,0V25l6.2-4.8l0,0
	C20.5,19.1,24.4,15.1,24.4,10.3z M10.7,10.5c-0.2,0.6-0.7,1.1-1.2,1.4c-0.7,0.5-1.5,1-2.2,1.5c-0.1,0.1-0.2,0.1-0.4,0.2
	c0,0,0,0-0.1-0.1c0.3-0.7,0.6-1.3,0.8-2c-0.2-0.1-0.3-0.2-0.4-0.4c-0.8-0.8-0.8-1.9-0.2-2.8c0.6-0.8,1.8-1,2.7-0.5
	C10.7,8.4,11.1,9.5,10.7,10.5z M17.9,10.4c-0.2,0.6-0.6,1-1,1.4c-0.8,0.6-1.7,1.2-2.6,1.8c0,0-0.1,0-0.3,0.1
	c0.3-0.6,0.5-1.2,0.7-1.8c0.1-0.2,0.1-0.4-0.1-0.6c-0.8-0.6-1-1.8-0.5-2.7c0.6-0.9,1.7-1.3,2.7-0.8C17.8,8.3,18.2,9.4,17.9,10.4z"/>
</svg>
