<svg 
 xmlns="http://www.w3.org/2000/svg"
 xmlns:xlink="http://www.w3.org/1999/xlink">
<path fill-rule="evenodd"  fill="rgb(22, 81, 118)"
 d="M33.996,22.940 C33.996,22.941 33.997,22.942 33.997,22.943 C33.997,23.527 33.523,24.000 32.938,24.000 L25.051,24.000 C25.642,23.869 26.085,23.345 26.085,22.715 C26.085,22.714 26.085,22.713 26.085,22.712 L26.086,22.712 C26.086,22.712 26.086,17.912 22.573,16.167 C21.071,15.421 20.972,15.563 20.226,15.386 L20.247,13.306 C20.247,13.306 19.426,12.680 19.172,10.716 C18.658,10.865 18.489,10.115 18.459,9.638 C18.431,9.177 18.162,7.736 18.788,7.867 C18.660,6.905 18.568,6.038 18.613,5.579 C18.770,3.966 20.325,2.282 22.721,2.159 C25.540,2.282 26.656,3.965 26.813,5.578 C26.858,6.037 26.758,6.904 26.630,7.865 C27.256,7.736 26.984,9.173 26.953,9.635 C26.926,10.112 26.752,10.859 26.240,10.711 C25.985,12.675 25.164,13.296 25.164,13.296 L25.184,15.373 C25.184,15.373 25.702,15.668 27.892,16.574 C30.082,17.481 29.395,16.803 31.179,17.689 C33.997,19.089 33.997,22.940 33.997,22.940 L33.996,22.940 ZM18.114,15.837 C20.521,16.834 19.765,16.089 21.726,17.063 C24.824,18.602 24.824,22.835 24.824,22.835 L24.824,22.835 C24.824,22.836 24.824,22.838 24.824,22.838 C24.824,23.480 24.303,24.000 23.660,24.000 L1.164,24.000 C0.521,24.000 -0.000,23.480 -0.000,22.838 C-0.000,22.838 0.000,22.836 0.000,22.835 L-0.001,22.835 C-0.001,22.835 -0.001,18.602 3.098,17.062 C5.058,16.088 4.304,16.879 6.710,15.882 C9.117,14.887 9.687,14.540 9.687,14.540 L9.710,12.246 C9.710,12.246 8.809,11.558 8.529,9.399 C7.964,9.562 7.778,8.738 7.745,8.213 C7.715,7.707 7.419,6.124 8.107,6.267 C7.966,5.210 7.865,4.257 7.914,3.752 C8.087,1.980 9.797,0.128 12.430,-0.007 C15.528,0.128 16.755,1.978 16.927,3.751 C16.977,4.256 16.867,5.209 16.726,6.264 C17.415,6.124 17.115,7.703 17.082,8.210 C17.052,8.735 16.861,9.556 16.298,9.393 C16.017,11.552 15.116,12.235 15.116,12.235 L15.137,14.517 C15.137,14.517 15.707,14.842 18.114,15.837 Z"/>
</svg>